<svg aria-hidden="true" style="position:absolute;width:0;height:0" xmlns="http://www.w3.org/2000/svg" overflow="hidden"><defs><symbol id="icon-arrow-left" viewBox="0 0 32 32"><path d="M20.546 9.881L18.667 8l-8 8 8 8 1.879-1.879L14.441 16l6.105-6.119z"/></symbol><symbol id="icon-arrow-right" viewBox="0 0 32 32"><path d="M11.452 9.881L13.333 8l8 8-8 8-1.881-1.879L17.559 16l-6.107-6.119z"/></symbol><symbol id="icon-arrow-drop-down" viewBox="0 0 32 32"><path d="M0 8l16 16L32 8H0z"/></symbol><symbol id="icon-close" viewBox="0 0 32 32"><path fill="var(--color1, #fff)" d="M25.333 8.547l-1.88-1.88L16 14.12 8.547 6.667l-1.88 1.88L14.12 16l-7.453 7.453 1.88 1.88L16 17.88l7.453 7.453 1.88-1.88L17.88 16l7.453-7.453z"/></symbol><symbol id="icon-copyright" viewBox="0 0 32 32"><path d="M13.44 14.48c.068-.439.213-.827.4-1.159.187-.334.453-.615.786-.828.32-.199.72-.293 1.214-.306.306.012.587.066.841.172.267.121.507.281.693.48.185.201.332.441.453.708.119.267.172.56.185.853H20.4a4.757 4.757 0 00-.385-1.75l.012.031a4.012 4.012 0 00-.932-1.346l-.002-.002a4.36 4.36 0 00-1.41-.87l-.03-.01a5.063 5.063 0 00-1.756-.309l-.104.001h.005c-.866 0-1.627.148-2.267.455a4.614 4.614 0 00-1.594 1.22l-.006.007c-.427.519-.747 1.12-.946 1.813s-.32 1.412-.32 2.187v.359c0 .773.107 1.493.308 2.187.199.693.519 1.292.946 1.799.427.508.96.921 1.6 1.214s1.399.453 2.267.453c.626 0 1.212-.107 1.76-.306a4.521 4.521 0 001.44-.841c.403-.345.734-.761.976-1.231l.011-.023c.24-.48.388-.987.4-1.534h-2.388c-.012.281-.08.533-.199.775-.25.473-.661.832-1.159 1.009l-.015.005a2.59 2.59 0 01-.798.133h-.002c-.48-.014-.88-.107-1.188-.308a2.356 2.356 0 01-.78-.815l-.006-.011a3.439 3.439 0 01-.398-1.154l-.002-.02a8.807 8.807 0 01-.107-1.331v-.363c0-.466.039-.907.107-1.346zM16 2.667C8.64 2.667 2.667 8.64 2.667 16S8.64 29.333 16 29.333 29.333 23.36 29.333 16 23.36 2.667 16 2.667zm0 24c-5.881 0-10.667-4.788-10.667-10.667 0-5.881 4.786-10.667 10.667-10.667 5.879 0 10.667 4.786 10.667 10.667 0 5.879-4.788 10.667-10.667 10.667z"/></symbol><symbol id="icon-heart-favorite" viewBox="0 0 32 32"><path fill="var(--color2, #878686)" stroke="var(--color2, #878686)" stroke-width=".6" d="M16 28h-.003c-.412 0-.789-.148-1.081-.394l.003.002c-1.132-.952-2.222-1.848-3.184-2.64l-.006-.002c-2.82-2.316-5.256-4.316-6.95-6.286-1.898-2.204-2.778-4.292-2.778-6.572 0-2.218.788-4.262 2.22-5.76C5.673 4.834 7.661 4 9.825 4c1.616 0 3.096.492 4.4 1.464a8.864 8.864 0 011.778 1.788 8.72 8.72 0 011.78-1.788A7.163 7.163 0 0122.14 4h.043-.002c2.16 0 4.15.834 5.6 2.348 1.432 1.498 2.22 3.542 2.22 5.76 0 2.28-.882 4.368-2.776 6.572-1.696 1.97-4.132 3.97-6.952 6.286-.964.79-2.056 1.688-3.19 2.642-.29.244-.667.392-1.079.392H16h0zM9.822 5.58c-1.7 0-3.26.654-4.396 1.84-1.152 1.204-1.786 2.868-1.786 4.688 0 1.918.74 3.634 2.4 5.564 1.604 1.864 3.99 3.824 6.752 6.092l.006.004c.966.792 2.06 1.692 3.2 2.652a364.03 364.03 0 013.21-2.658c2.762-2.268 5.148-4.226 6.752-6.09 1.66-1.93 2.4-3.646 2.4-5.564 0-1.82-.634-3.484-1.786-4.688a5.997 5.997 0 00-4.329-1.84h-.07.004c-1.244 0-2.388.38-3.396 1.134-.9.67-1.526 1.516-1.892 2.108-.186.295-.51.488-.879.488h-.011.001-.011c-.369 0-.693-.193-.877-.484l-.003-.004a7.815 7.815 0 00-1.874-2.095l-.018-.013A5.532 5.532 0 009.85 5.58h-.028.001z"/></symbol><symbol id="icon-heart-goit-btn" viewBox="0 0 32 32"><path fill="var(--color3, #ff6b09)" d="M16 30.72l-2.24-2.24C5.44 21.12 0 16.16 0 10.08c0-4.96 3.84-8.8 8.8-8.8 2.72 0 5.44 1.28 7.2 3.36 1.76-2.08 4.48-3.36 7.2-3.36 4.96 0 8.8 3.84 8.8 8.8 0 6.08-5.44 11.04-13.76 18.4L16 30.72z"/></symbol><symbol id="icon-logout" viewBox="0 0 32 32"><path d="M3.235 21.654v7.11h25.53V3.234H3.235v7.112H.32V3.554A3.235 3.235 0 013.555.319h24.89a3.235 3.235 0 013.235 3.235v24.89a3.235 3.235 0 01-3.235 3.235H3.555A3.235 3.235 0 01.32 28.444v-6.79h2.915zm14.728-7.112l-4.915-4.915 2.064-2.064L23.546 16l-8.437 8.437-2.062-2.064 4.915-4.915H.32v-2.914h17.643z"/></symbol><symbol id="icon-menu" viewBox="0 0 32 32"><path d="M4 24h24v-2.667H4V24zm0-6.667h24v-2.666H4v2.666zM4 8v2.667h24V8H4z"/></symbol><symbol id="icon-plus" viewBox="0 0 32 32"><path fill="none" stroke="var(--color1, #fff)" stroke-width="4.571" d="M16 0v32M0 16h32"/></symbol><symbol id="icon-replay" viewBox="0 0 32 32"><path d="M6.667 16H1.334l6.667 6.667L14.668 16H9.335c0-4.413 3.587-8 8-8s8 3.587 8 8-3.587 8-8 8v2.667c5.893 0 10.667-4.773 10.667-10.667S23.229 5.333 17.335 5.333 6.668 10.106 6.668 16z"/></symbol><symbol id="icon-search" viewBox="0 0 32 32"><path fill="var(--color1, #fff)" d="M20.667 18.667h-1.053l-.373-.36a8.582 8.582 0 002.093-5.634v-.006a8.667 8.667 0 10-8.667 8.667 8.63 8.63 0 005.64-2.093l.36.373v1.053l6.667 6.653 1.987-1.987-6.653-6.667zm-8 0c-3.32 0-6-2.68-6-6s2.68-6 6-6 6 2.68 6 6-2.68 6-6 6z"/></symbol><symbol id="icon-share-btn" viewBox="0 0 32 32"><path fill="var(--color2, #878686)" d="M25.436 21.334a5.32 5.32 0 00-4.058 1.878l-9.632-5.956a5.35 5.35 0 00-.008-2.549l.008.037 9.632-5.956a5.313 5.313 0 004.058 1.88 5.339 5.339 0 005.334-5.334A5.339 5.339 0 0025.436 0a5.34 5.34 0 00-5.174 6.627l-.008-.037-9.634 5.954a5.314 5.314 0 00-4.057-1.878h-.001A5.34 5.34 0 001.23 16a5.339 5.339 0 005.334 5.334c1.624 0 3.08-.73 4.058-1.88l9.632 5.956A5.34 5.34 0 0025.436 32h.001a5.339 5.339 0 005.334-5.334 5.34 5.34 0 00-5.334-5.332zm0-18.872a2.875 2.875 0 012.872 2.872 2.876 2.876 0 01-2.872 2.872 2.876 2.876 0 01-2.872-2.872 2.875 2.875 0 012.872-2.872zM6.564 18.872A2.876 2.876 0 013.692 16c0-1.584 1.288-2.872 2.872-2.872S9.436 14.416 9.436 16a2.875 2.875 0 01-2.872 2.872zm18.872 10.666a2.876 2.876 0 01-2.872-2.872c0-1.582 1.288-2.872 2.872-2.872s2.872 1.29 2.872 2.872a2.875 2.875 0 01-2.872 2.872z"/></symbol><symbol id="icon-user-profile" viewBox="0 0 32 32"><path d="M29.474 32h-3.242c0-5.47-4.589-9.92-10.232-9.92S5.77 26.531 5.77 32H2.528c0-7.259 6.045-13.162 13.472-13.162 7.429 0 13.474 5.902 13.474 13.162zM16 17.786a8.905 8.905 0 01-8.89-8.892v-.001A8.902 8.902 0 0116.001 0a8.902 8.902 0 018.894 8.892v.001a8.903 8.903 0 01-8.896 8.893zm0-14.544a5.656 5.656 0 00-5.648 5.651A5.657 5.657 0 0016 14.543a5.657 5.657 0 005.653-5.649 5.658 5.658 0 00-5.651-5.65z"/></symbol><symbol id="icon-close_40px" viewBox="0 0 32 32"><path d="M23.734 10.304L22.23 8.8l-5.963 5.962L10.305 8.8l-1.504 1.504 5.962 5.962-5.962 5.963 1.504 1.504 5.962-5.963 5.963 5.963 1.504-1.504-5.963-5.963 5.963-5.962z"/></symbol><symbol id="icon-menu_40px" viewBox="0 0 32 32"><path d="M6.4 11.734V9.6h19.2v2.134H6.4zm0 5.332h19.2v-2.133H6.4v2.133zm0 5.334h19.2v-2.134H6.4V22.4z"/></symbol></defs></svg>